<svg width="1711" height="190" viewBox="0 0 1711 190" fill="none" xmlns="http://www.w3.org/2000/svg">
<g id="Plug">
<g id="Plug_2" clip-path="url(#clip0_48_20)">
<g id="SVGRepo_iconCarrier">
<g id="Group">
<path id="Vector" d="M829.994 134.072L868.595 134.054C871.267 134.053 873.434 131.877 873.434 129.194L873.435 121.421C873.435 118.738 871.269 116.561 868.596 116.563L829.996 116.58L829.999 81.4039L868.599 81.3864C871.271 81.3855 873.438 79.2095 873.439 76.5238L873.439 68.7542C873.439 66.0685 871.273 63.8944 868.601 63.8956L830 63.9132L830.002 43.6433L813.568 43.6508L813.559 154.349L829.992 154.342L829.994 134.072Z" fill="black"/>
<path id="Vector_2" d="M785.759 43.6509C765.977 43.6599 748.955 55.5059 741.287 72.5144L730.67 72.5192C725.571 72.5215 721.436 76.6801 721.435 81.8044L721.432 116.25C721.432 121.377 725.567 125.529 730.665 125.527L741.283 125.522C748.947 142.526 765.968 154.354 785.749 154.345L806.116 154.336L806.125 43.6416L785.759 43.6509Z" fill="black"/>
<path id="Vector_3" d="M714.602 109.543L714.604 88.4961L-58.1342 88.8486L-58.136 109.896L714.602 109.543Z" fill="black"/>
</g>
</g>
</g>
<g id="Plug_3" opacity="0.9" clip-path="url(#clip1_48_20)">
<g id="SVGRepo_iconCarrier_2">
<g id="Group_2">
<path id="Vector_4" d="M925.157 153.355C945.042 153.355 962.153 141.515 969.859 124.508L980.532 124.508C985.657 124.508 989.814 120.351 989.814 115.226V80.7748C989.814 75.6472 985.657 71.4925 980.532 71.4925H969.859C962.153 54.4825 945.042 42.6451 925.157 42.6451H904.684V153.355H925.157Z" fill="black"/>
<path id="Vector_5" d="M997 87V109L1716 109V87L997 87Z" fill="black"/>
</g>
</g>
</g>
</g>
<defs>
<clipPath id="clip0_48_20">
<rect width="184" height="873.147" fill="white" transform="matrix(0 1 -1 0 873.37 0.633057)"/>
</clipPath>
<clipPath id="clip1_48_20">
<rect width="184" height="874" fill="white" transform="matrix(0 -1 1 0 837 190)"/>
</clipPath>
</defs>
</svg>
